<?xml version="1.0" standalone="no"?>
<!DOCTYPE svg PUBLIC "-//W3C//DTD SVG 20010904//EN"
 "http://www.w3.org/TR/2001/REC-SVG-20010904/DTD/svg10.dtd">
<svg version="1.0" xmlns="http://www.w3.org/2000/svg"
 width="260.000000pt" height="260.000000pt" viewBox="0 0 260.000000 260.000000"
 preserveAspectRatio="xMidYMid meet">
<metadata>
Created by potrace 1.14, written by Peter Selinger 2001-2017
</metadata>
<g transform="translate(0.000000,260.000000) scale(0.100000,-0.100000)"
fill="#000000" stroke="none">
<path d="M1102 2478 c2 -108 1 -109 -110 -153 -104 -41 -201 -102 -297 -185
-124 -108 -168 -166 -227 -297 -57 -125 -77 -231 -73 -387 1 -72 6 -150 9
-173 8 -57 54 -195 85 -253 64 -122 96 -168 163 -238 31 -32 69 -77 85 -101
26 -38 29 -49 22 -80 -5 -23 -22 -48 -46 -69 -21 -18 -49 -43 -63 -56 -46 -41
-114 -61 -202 -59 -48 2 -60 -1 -68 -18 -6 -11 -7 -25 -3 -32 4 -6 9 -21 10
-31 5 -29 33 -56 59 -56 15 0 35 -16 60 -48 52 -65 107 -116 130 -120 10 -2
29 -10 41 -17 24 -16 53 -23 133 -30 30 -3 70 -10 88 -15 47 -12 199 -2 241
17 20 9 42 15 49 14 6 -1 12 3 12 9 0 6 4 8 10 5 5 -3 28 -1 50 5 22 6 73 12
113 14 53 3 93 12 152 36 68 28 95 34 175 36 165 5 215 9 228 18 7 4 33 9 57
11 24 2 57 13 72 24 15 11 37 22 48 24 27 3 95 46 95 58 0 6 4 8 9 5 14 -9 44
32 46 61 3 38 -10 59 -44 76 -24 12 -72 14 -235 13 -147 -1 -206 2 -206 10 0
38 117 212 206 304 102 107 115 122 158 190 91 143 125 277 121 470 -3 145 -4
153 -36 256 -53 171 -170 344 -310 459 -31 26 -129 83 -200 118 -60 29 -83 49
-93 83 -5 15 -27 29 -84 49 -97 34 -289 94 -322 101 -14 3 -41 9 -60 14 -19 6
-38 10 -43 10 -4 0 -6 -33 -5 -72z"/>
</g>
</svg>
